<svg xmlns="http://www.w3.org/2000/svg" width="225" height="225" viewBox="0 0 225 225" version="1.1"><path d="M 94.785 1.551 C 46.908 9.006, 8.753 47.509, 1.489 95.697 C -1.216 113.644, 0.301 131.147, 6.048 148.303 C 15.342 176.051, 36.384 200.207, 62.763 213.412 C 76.103 220.090, 97.148 224.988, 112.500 224.988 C 127.852 224.988, 148.897 220.090, 162.237 213.412 C 177.129 205.957, 193 192.536, 203.521 178.500 C 213.153 165.651, 222.083 143.407, 223.616 128.448 C 223.982 124.870, 224.669 121.705, 225.141 121.413 C 225.613 121.121, 226 116.607, 226 111.382 C 226 106.157, 225.611 102.122, 225.136 102.416 C 224.660 102.710, 223.974 100.048, 223.610 96.500 C 222.017 80.945, 213.544 60.250, 202.988 46.127 C 196.743 37.771, 185.321 26.442, 177.500 20.845 C 154.150 4.136, 123.740 -2.958, 94.785 1.551 M 100.250 14.998 C 90.051 16.435, 79.085 19.808, 69.447 24.472 C 36.498 40.417, 15.214 73.651, 14.672 110 C 14.577 116.325, 14.859 124.003, 15.298 127.062 L 16.097 132.624 23.327 125.562 C 30.036 119.009, 46.555 108, 49.679 108 C 50.402 108, 48.780 110.137, 46.074 112.750 C 39.058 119.525, 37.982 126.304, 43.523 128.829 C 46.287 130.088, 54.245 130.351, 60.130 129.378 L 63.760 128.777 62.392 123.639 C 61.639 120.812, 61.018 114.869, 61.012 110.432 C 60.990 95.810, 66.207 83.820, 77.034 73.607 C 84.712 66.364, 92.045 62.519, 102.343 60.338 C 127.217 55.068, 153.774 71.063, 161.044 95.692 L 162.282 99.883 169.005 96.498 C 175.702 93.125, 181 88.200, 181 85.346 C 181 81.216, 171.927 76.020, 164.691 76.006 C 163.146 76.003, 162.121 75.613, 162.414 75.140 C 164.192 72.263, 192.954 73.282, 200.642 76.495 C 202.527 77.282, 204 77.471, 204 76.924 C 204 76.388, 202.372 72.699, 200.383 68.725 C 189.632 47.248, 170.247 29.660, 147.743 20.966 C 133.278 15.378, 114.395 13.005, 100.250 14.998 M 203.500 97.406 C 197.232 103.960, 186.457 111.247, 173.186 117.907 C 167.536 120.742, 162.665 123.835, 162.362 124.781 C 158.307 137.415, 151.923 146.852, 142.976 153.439 C 124.773 166.839, 100.180 166.805, 81.909 153.354 L 75.768 148.833 63.310 150.058 C 49.104 151.455, 33.799 150.850, 26.547 148.606 C 23.822 147.763, 21.370 147.296, 21.098 147.569 C 20.825 147.841, 22.070 151.040, 23.864 154.678 C 35.412 178.097, 54.449 195.491, 78.385 204.494 C 90.333 208.989, 98.382 210.335, 113 210.282 C 124.124 210.242, 128.193 209.789, 136.119 207.707 C 155.158 202.708, 169.666 194.243, 183.092 180.300 C 195.706 167.200, 202.940 154.271, 207.642 136.421 C 209.883 127.912, 210.248 124.507, 210.203 112.500 C 210.173 104.800, 209.778 97.078, 209.325 95.339 L 208.500 92.178 203.500 97.406 M 0.365 112.500 C 0.368 118, 0.536 120.122, 0.738 117.216 C 0.941 114.311, 0.939 109.811, 0.734 107.216 C 0.528 104.622, 0.363 107, 0.365 112.500" stroke="none" fill="#ffffff" fill-rule="evenodd"/></svg>

